:version 1.10
:name ASF
:units
  mass 1
  length 1
  angle deg
:documentation
  ASF file generated by Kaydara
:root
  axis xyz
  order  tx ty tz rx ry rz
  position 0 0 0
  orientation 0 0 0
:bonedata
  begin
    id 1
    name RightUpLegDummy
    direction -0.718183 -0.695806 0.00816078
    length 4.904
    axis 0 0 0 xyz
  end
  begin
    id 2
    name RightUpLeg
    direction 3.53373e-006 -0.995788 0.0916898
    length 17.4976
    axis -3.49089 -0.000906625 0.000286804 xyz
    dof rx ry rz
  end
  begin
    id 3
    name RightLeg
    direction 0.00371092 -0.995096 -0.0988419
    length 16.5821
    axis 3.68512 0.0193738 -0.131023 xyz
    dof rx ry rz
  end
  begin
    id 4
    name RightFoot
    direction 0.00079151 -0.46099 0.887405
    length 3.77069
    axis 4.81691e-005 -0.120479 -0.188788 xyz
    dof rx ry rz
  end
  begin
    id 5
    name RightToes
    direction 0.00124746 -0.014064 0.9999
    length 3.85082
    axis 0.000481921 0.542163 -0.142578 xyz
    dof rx ry rz
  end
  begin
    id 6
    name SpineDummy
    direction 8.3039e-015 1 4.57515e-016
    length 4.6813
    axis 0 0 0 xyz
  end
  begin
    id 7
    name Spine
    direction -3.15643e-008 0.999988 0.00495137
    length 10.1015
    axis -0.001389 0.000121418 2.40972e-006 xyz
    dof rx ry rz
  end
  begin
    id 8
    name Spine1
    direction 0 0 0
    length 0
    axis -0.001389 0.000121451 1.30017e-006 xyz
    dof rx ry rz
  end
  begin
    id 9
    name HEadDummy
    direction -1.99912e-008 0.999999 0.00127422
    length 3.43865
    axis -0.001389 0.000121451 1.30017e-006 xyz
  end
  begin
    id 10
    name HEad
    direction -0.0222688 0.980941 0.193023
    length 5.12695
    axis -0.001389 0.000121451 1.30017e-006 xyz
    dof rx ry rz
  end
  begin
    id 11
    name LeftShoulder1Dummy
    direction 0.998891 -0.0402509 -0.0244456
    length 3.5433
    axis -0.001389 0.000121451 1.30017e-006 xyz
  end
  begin
    id 12
    name LeftShoulder1
    direction 0.99951 -0.000327763 0.0313091
    length 4.05031
    axis -0.001389 0.000121451 1.30017e-006 xyz
    dof rx ry rz
  end
  begin
    id 13
    name LeftArm
    direction 0.998561 -0.00100056 -0.0536182
    length 10.3537
    axis -23.1894 0.134784 0.967509 xyz
    dof rx ry rz
  end
  begin
    id 14
    name LeftForeArm
    direction 0.998903 0.00866432 0.046012
    length 8.70632
    axis -9.91835 -0.06569 -0.177794 xyz
    dof rx ry rz
  end
  begin
    id 15
    name LeftHand
    direction 0.992938 -0.0411637 0.11126
    length 5.32135
    axis -0.00960232 -0.00340091 0.185173 xyz
    dof rx ry rz
  end
  begin
    id 16
    name RightShoulderDummy
    direction -0.998891 -0.0402509 -0.0244414
    length 3.5433
    axis -0.001389 0.000121451 1.30017e-006 xyz
  end
  begin
    id 17
    name RightShoulder
    direction -0.99951 -0.000327807 0.0313133
    length 4.05031
    axis 0.215806 0.000203643 -0.0068026 xyz
    dof rx ry rz
  end
  begin
    id 18
    name RightArm
    direction -0.998573 -0.000999564 -0.053403
    length 10.3947
    axis -23.2009 -0.134239 -0.964101 xyz
    dof rx ry rz
  end
  begin
    id 19
    name RightForeArm
    direction -0.998898 0.00868028 0.0461306
    length 8.68355
    axis -9.92322 0.0658061 0.178868 xyz
    dof rx ry rz
  end
  begin
    id 20
    name RightHand
    direction -0.992843 -0.0414603 0.112003
    length 5.28593
    axis -0.00960638 0.00330671 -0.185228 xyz
    dof rx ry rz
  end
  begin
    id 21
    name LeftUpLegDummy
    direction 0.718183 -0.695806 0.00816078
    length 4.904
    axis 0 0 0 xyz
  end
  begin
    id 22
    name LeftUpLeg
    direction -6.81752e-006 -0.995793 0.0916337
    length 17.4976
    axis -3.48766 0.00143442 -0.000524262 xyz
    dof rx ry rz
  end
  begin
    id 23
    name LeftLeg
    direction -0.00601358 -0.995091 -0.0987824
    length 16.5821
    axis 3.68178 -0.00654042 -0.000285133 xyz
    dof rx ry rz
  end
  begin
    id 24
    name LeftFoot
    direction -0.00417578 -0.460984 0.887399
    length 3.77069
    axis 1.87233e-006 4.66016e-005 -8.6538e-006 xyz
    dof rx ry rz
  end
  begin
    id 25
    name LeftToes
    direction 0.00818058 -0.00485161 0.999955
    length 3.85048
    axis 1.06247e-005 4.65869e-005 -8.65513e-006 xyz
    dof rx ry rz
  end
:hierarchy
  begin
    root RightUpLegDummy SpineDummy LeftUpLegDummy
    RightUpLegDummy RightUpLeg
    RightUpLeg RightLeg
    RightLeg RightFoot
    RightFoot RightToes
    SpineDummy Spine
    Spine Spine1
    Spine1 HEadDummy LeftShoulder1Dummy RightShoulderDummy
    HEadDummy HEad
    LeftShoulder1Dummy LeftShoulder1
    LeftShoulder1 LeftArm
    LeftArm LeftForeArm
    LeftForeArm LeftHand
    RightShoulderDummy RightShoulder
    RightShoulder RightArm
    RightArm RightForeArm
    RightForeArm RightHand
    LeftUpLegDummy LeftUpLeg
    LeftUpLeg LeftLeg
    LeftLeg LeftFoot
    LeftFoot LeftToes
  end

:SAMPLES-PER-SECOND 30
:FRAME-RANGE 1-564
:FULLY-SPECIFIED
:DEGREES
1
root  90.1077 39.6585 136.871 -9.7607 -80.2247 0.180161
RightUpLeg  18.1695 -1.01278 2.05063
RightLeg  -5.96399 0.870228 -5.5296
RightFoot  -4.38176 -0.361307 5.50399
RightToes  -1.74624e-010 0 -3.6325e-017
Spine  3.1828 2.09208 5.75688
Spine1  2.91193 3.53971 -6.03882
HEad  1.74327 3.1314 -6.99632
LeftShoulder1  3.43817 -3.97223 -39.7799
LeftArm  16.2481 3.66469 -30.5585
LeftForeArm  9.2189 -4.31069 -17.6561
LeftHand  -2.05214 -9.99202 15.7638
RightShoulder  10.4628 9.09217 70.1216
RightArm  25.7751 3.69748 -2.20788
RightForeArm  16.3959 6.02141 14.8738
RightHand  1.53929 20.8024 6.2518
LeftUpLeg  18.0325 4.90308 1.31083
LeftLeg  -5.09049 -2.63028 2.41722
LeftFoot  -5.124 -0.179408 4.06252
LeftToes  -6.43926e-010 8.38805e-011 -3.16407e-011
2
root  90.0982 39.6514 136.883 -10.2538 -80.358 0.607098
RightUpLeg  18.2532 -1.03552 1.92776
RightLeg  -5.96557 1.21168 -5.59685
RightFoot  -4.52268 -0.371882 5.66835
RightToes  -1.74624e-010 0 -3.6325e-017
Spine  3.05268 2.11917 5.96279
Spine1  3.17568 3.646 -6.35789
HEad  1.80692 3.24533 -6.99302
LeftShoulder1  3.44414 -4.00637 -39.6576
LeftArm  16.5178 2.98935 -30.99
LeftForeArm  2.16013 -4.25128 -18.0284
LeftHand  -1.2051 -3.82841 15.3769
RightShoulder  10.6448 9.28117 70.256
RightArm  25.9813 3.8602 -2.07117
RightForeArm  16.3287 6.41152 14.7176
RightHand  1.54782 20.9872 6.23993
LeftUpLeg  18.173 4.84057 1.17468
LeftLeg  -5.139 -2.43026 2.45713
LeftFoot  -5.18877 -0.170893 3.92986
LeftToes  -6.43926e-010 8.38805e-011 -3.16407e-011
3
root  90.1074 39.6514 136.851 -9.43393 -80.366 -0.141107
RightUpLeg  18.1612 -0.910175 2.14247
RightLeg  -6.00142 1.0523 -5.53649
RightFoot  -4.46937 -0.365386 5.56738
RightToes  -1.74624e-010 0 -3.6325e-017
Spine  3.07363 2.10131 5.79332
Spine1  3.11525 3.53712 -6.09067
HEad  1.85143 3.48437 -7.13466
LeftShoulder1  3.44739 -4.00222 -39.7225
LeftArm  17.7373 2.54 -31.3106
LeftForeArm  1.23086 -4.61104 -18.0309
LeftHand  -1.19271 -3.13721 16.4054
RightShoulder  10.8268 9.4952 70.2775
RightArm  25.9972 4.07832 -1.89348
RightForeArm  15.9032 6.44651 14.7206
RightHand  1.51505 20.7481 6.16002
LeftUpLeg  17.8469 4.99275 1.45034
LeftLeg  -4.69559 -2.66248 2.37857
LeftFoot  -5.37156 -0.172166 3.94969
LeftToes  -6.43926e-010 8.38805e-011 -3.16407e-011
4
root  90.1057 39.6515 136.838 -9.28177 -80.457 -0.267236
RightUpLeg  18.0811 -0.786318 2.22995
RightLeg  -5.9412 1.03788 -5.58758
RightFoot  -4.43516 -0.354461 5.3976
RightToes  -1.74624e-010 0 -3.6325e-017
Spine  3.10751 2.10036 5.7358
Spine1  3.08744 3.51727 -6.02347
HEad  1.93337 3.6768 -7.10936
LeftShoulder1  3.45567 -4.01358 -39.7611
LeftArm  18.3204 2.1853 -31.4911
LeftForeArm  -4.34336 -4.72482 -18.3021
LeftHand  -0.613036 0.846282 15.6638
RightShoulder  10.9083 9.58116 70.3298
RightArm  25.5962 4.26233 -1.73053
RightForeArm  16.4826 6.22239 14.7569
RightHand  1.51897 20.8826 6.14183
LeftUpLeg  17.8134 5.04649 1.52929
LeftLeg  -4.66459 -2.67291 2.33219
LeftFoot  -5.37945 -0.170498 3.9237
LeftToes  -6.43926e-010 8.38805e-011 -3.16407e-011
5
root  90.0998 39.6517 136.833 -9.32907 -80.5424 -0.152618
RightUpLeg  17.9862 -0.885597 2.12013
RightLeg  -5.91092 1.36427 -5.51823
RightFoot  -4.50465 -0.360534 5.49198
RightToes  -1.74624e-010 0 -3.6325e-017
Spine  3.07645 2.08606 5.64568
Spine1  3.10026 3.47936 -5.93134
HEad  1.98752 3.69875 -7.24982
LeftShoulder1  3.45151 -3.99073 -39.8411
LeftArm  18.7335 1.97977 -31.6133
LeftForeArm  -8.11904 -4.78875 -18.4955
LeftHand  -0.235178 3.683 15.4267
RightShoulder  10.9164 9.5976 70.3007
RightArm  25.673 4.26437 -1.55609
RightForeArm  16.8633 6.23635 14.7073
RightHand  1.53414 21.1587 6.13583
LeftUpLeg  17.8212 5.03676 1.49025
LeftLeg  -4.80099 -2.50506 2.33399
LeftFoot  -5.28432 -0.175152 3.99621
LeftToes  -6.43926e-010 8.38805e-011 -3.16407e-011
